<?xml version="1.0" encoding="UTF-8"?>
<svg width="752pt" height="752pt" version="1.1" viewBox="0 0 752 752" xmlns="http://www.w3.org/2000/svg">
 <g fill="#fff">
  <path d="m581.02 274.57c-2.8906-2.8906-7.5742-2.8906-10.465 0l-46.562 46.566-59.199-59.199-27.43 27.43c-2.8906 2.8906-2.8906 7.5742 0 10.465 2.8906 2.8906 7.5742 2.8906 10.465 0l16.965-16.965 59.199 59.199 57.031-57.031c2.8867-2.8906 2.8867-7.5742-0.003906-10.465z"/>
  <path d="m285.04 299.84c2.8906-2.8906 2.8906-7.5742 0-10.465l-42.227-42.23-71.828 71.828c-2.8906 2.8906-2.8906 7.5742 0 10.465 1.4414 1.4453 3.3359 2.168 5.2305 2.168 1.8945 0 3.7852-0.72266 5.2305-2.168l61.367-61.363 31.766 31.766c2.8906 2.8906 7.5742 2.8906 10.461 0z"/>
  <path d="m416.06 342.07-20.926-20.926-26.363 26.363c-2.4297-0.64844-4.9375-1.1016-7.5703-1.1016s-5.1406 0.45312-7.5703 1.1016l-26.363-26.363-20.926 20.926 26.363 26.363c-0.64844 2.4297-1.1055 4.9375-1.1055 7.5703 0 16.348 13.254 29.598 29.598 29.598 16.348 0 29.598-13.254 29.598-29.598 0-2.6328-0.45312-5.1406-1.1016-7.5703zm-54.859 48.734c-8.1719 0-14.801-6.625-14.801-14.801 0-8.1719 6.625-14.801 14.801-14.801 8.1719 0 14.801 6.625 14.801 14.801-0.003906 8.1758-6.6289 14.801-14.801 14.801z"/>
  <path d="m445.66 424.73c-2.2344-2.2344-5.0469-3.3359-7.9414-3.8438 7.7539-13.184 12.277-28.492 12.277-44.891 0-49.043-39.754-88.797-88.797-88.797s-88.797 39.754-88.797 88.797 39.754 88.797 88.797 88.797c16.398 0 31.707-4.5234 44.891-12.273 0.50781 2.8945 1.6094 5.707 3.8438 7.9414l88.797 88.797c2.8867 2.8867 6.6758 4.332 10.461 4.332 3.7891 0 7.5742-1.4453 10.465-4.3359l14.801-14.801c5.7812-5.7773 5.7812-15.148 0-20.93zm-158.46-48.734c0-40.801 33.195-73.996 73.996-73.996s73.996 33.195 73.996 73.996-33.195 73.996-73.996 73.996c-40.801 0.003906-73.996-33.191-73.996-73.996zm221.99 162.79-88.797-88.797 14.801-14.801 88.797 88.797z"/>
 </g>
</svg>
